<svg id="iconce.com" width="256" height="256" viewBox="0 0 256 256" fill="none" xmlns="http://www.w3.org/2000/svg" xmlns:xlink="http://www.w3.org/1999/xlink"><defs><linearGradient id="r5" gradientUnits="userSpaceOnUse" gradientTransform="rotate(45)" style="transform-origin:center center"><stop stop-color="#F5AF19"/><stop offset="1" stop-color="#F12711"/></linearGradient><radialGradient id="r6" cx="0" cy="0" r="1" gradientUnits="userSpaceOnUse" gradientTransform="translate(256) rotate(90) scale(512)"><stop stop-color="white"/><stop offset="1" stop-color="white" stop-opacity="0"/></radialGradient></defs><rect id="r4" width="256" height="256" x="0" y="0" rx="64" fill="url(#r5)" stroke="#FFFFFF" stroke-width="0" stroke-opacity="100%" paint-order="stroke"/><svg xmlns="http://www.w3.org/2000/svg" version="1.0" width="128" height="128" viewBox="0 0 512.000000 512.000000" preserveAspectRatio="xMidYMid meet" x="64" y="64">
<metadata>
Created by potrace 1.14, written by Peter Selinger 2001-2017
</metadata>
<g transform="translate(0.000000,512.000000) scale(0.100000,-0.100000)" fill="#000000" stroke="none">
<path d="M3485 4890 c-303 -62 -677 -232 -976 -445 l-76 -54 -29 30 c-75 79 -241 176 -399 234 -27 10 -54 22 -60 25 -10 8 -215 77 -250 85 -11 3 -47 12 -80 20 -54 14 -183 35 -304 49 l-44 6 6 -73 c4 -39 13 -110 21 -157 8 -47 17 -107 21 -135 3 -27 8 -61 10 -75 5 -37 13 -107 20 -180 8 -79 11 -115 20 -201 5 -45 3 -69 -4 -74 -16 -9 -341 -9 -723 0 -249 6 -321 5 -333 -5 -52 -43 37 -363 166 -597 81 -149 200 -324 274 -407 19 -21 35 -41 35 -45 0 -4 -66 -60 -148 -124 -81 -64 -184 -153 -228 -199 -89 -90 -209 -245 -246 -315 l-23 -44 29 -24 c41 -33 167 -71 316 -96 69 -11 150 -27 180 -35 91 -25 230 -76 230 -84 0 -5 -44 -54 -97 -110 -125 -131 -184 -210 -330 -445 -165 -264 -180 -294 -164 -332 6 -16 25 -37 42 -47 30 -18 66 -18 464 -1 44 2 149 6 234 10 l154 6 -7 -38 c-13 -84 -46 -213 -100 -393 -30 -104 -32 -116 -17 -125 23 -14 287 -11 341 4 121 34 212 80 303 154 l47 39 55 -50 c30 -28 79 -64 109 -81 64 -37 215 -86 311 -101 l70 -11 2 -47 c5 -127 14 -171 36 -178 35 -12 487 -11 503 1 11 7 15 40 18 123 3 125 4 126 70 138 22 3 126 50 232 104 l193 97 38 -33 c21 -19 72 -50 113 -70 79 -38 280 -108 340 -118 19 -3 55 -9 80 -14 101 -18 205 1 261 48 l34 28 0 310 c0 264 2 313 15 325 8 8 83 54 165 102 205 120 256 156 332 233 106 107 185 237 229 377 23 73 20 99 -13 109 -15 4 -220 42 -347 63 -104 17 -236 85 -236 121 0 10 24 32 56 52 67 42 206 185 295 303 108 145 191 336 222 515 16 91 21 304 9 347 -13 48 -55 45 -218 -16 -127 -47 -294 -101 -294 -94 0 2 44 104 99 227 143 324 189 487 186 668 -2 96 -10 130 -31 130 -13 0 -269 -105 -379 -155 -195 -89 -417 -147 -610 -161 -44 -3 -86 -7 -92 -9 -30 -10 -41 6 -36 53 4 43 46 304 58 362 4 21 30 157 50 265 3 17 12 64 20 105 24 125 24 138 8 144 -28 11 -138 4 -228 -14z m87 -150 c-2 -14 -19 -104 -39 -200 -34 -173 -39 -199 -47 -242 -2 -13 -7 -34 -10 -48 -3 -14 -8 -36 -10 -50 -2 -14 -9 -45 -15 -70 -25 -110 -39 -227 -31 -260 6 -23 10 -25 65 -24 344 3 571 53 974 210 90 36 166 63 168 60 6 -6 -54 -186 -112 -336 -60 -154 -139 -326 -207 -450 -74 -135 -99 -206 -76 -221 15 -10 96 11 396 103 90 27 170 47 177 44 26 -10 0 -217 -46 -357 -37 -112 -102 -228 -185 -333 -85 -106 -231 -258 -323 -338 l-55 -47 14 -40 c15 -47 73 -120 118 -150 34 -22 165 -59 362 -101 58 -13 108 -25 113 -27 11 -7 -62 -140 -117 -213 -107 -140 -199 -211 -414 -321 -90 -46 -175 -93 -189 -105 l-26 -20 2 -287 c1 -263 -1 -287 -17 -295 -19 -10 -247 25 -347 53 -59 16 -205 80 -205 89 0 3 27 42 60 88 125 174 210 360 224 490 3 25 5 26 61 32 149 17 233 52 291 120 95 111 69 318 -47 389 -31 19 -73 33 -125 41 l-78 12 4 49 c12 132 3 572 -14 660 -5 29 -15 85 -21 125 -34 214 -123 413 -276 620 -257 348 -545 494 -974 494 -97 0 -234 -9 -285 -19 -452 -85 -723 -363 -860 -880 -43 -161 -79 -338 -96 -470 -3 -27 -8 -59 -10 -70 -10 -54 -18 -196 -19 -337 l0 -158 -25 0 c-40 0 -128 -46 -167 -87 -20 -21 -48 -63 -62 -93 -23 -49 -26 -67 -26 -170 0 -96 4 -123 21 -160 51 -110 149 -162 302 -161 42 0 62 -4 63 -12 4 -57 7 -79 19 -127 19 -82 50 -143 134 -265 l75 -109 -47 -18 c-99 -38 -311 -108 -326 -108 -21 0 -21 -2 15 136 29 115 33 131 44 184 14 73 13 79 -16 119 -50 70 -58 72 -220 65 -175 -8 -540 -11 -598 -6 -54 5 -53 18 8 120 80 132 304 441 363 503 55 57 178 224 178 241 0 35 -85 107 -175 149 -97 45 -176 61 -420 85 -38 3 -77 8 -85 9 -8 2 -24 4 -35 4 -11 1 -16 5 -10 9 6 4 28 30 50 57 89 112 372 385 399 385 4 0 12 4 19 10 85 69 119 100 138 124 21 27 21 28 3 51 -207 255 -323 432 -396 605 -65 151 -96 290 -71 315 11 12 106 14 540 14 289 1 528 3 530 5 3 2 -2 51 -11 108 -8 56 -18 121 -21 143 -3 22 -10 63 -15 90 -9 47 -12 69 -26 170 -2 22 -7 47 -9 55 -2 8 -7 44 -11 80 -3 36 -8 68 -10 72 -6 9 -17 178 -12 178 16 0 244 -80 348 -122 214 -87 453 -215 521 -280 35 -33 92 -70 114 -74 17 -3 47 12 107 53 322 221 448 290 688 374 158 55 301 95 340 94 21 0 24 -4 22 -25z m-827 -1005 c353 -41 599 -228 798 -605 100 -192 160 -372 191 -575 14 -88 15 -430 2 -500 -3 -16 -10 -64 -16 -105 -9 -71 -14 -103 -25 -160 -3 -14 -7 -43 -11 -65 -11 -76 -73 -321 -109 -430 -20 -60 -60 -159 -90 -220 -43 -88 -68 -123 -121 -177 l-67 -67 -71 48 c-101 69 -130 83 -145 68 -19 -19 -12 -41 22 -64 17 -13 52 -40 76 -62 l44 -38 -47 -32 c-27 -19 -51 -29 -59 -25 -6 4 -52 38 -100 76 -49 37 -95 68 -101 68 -7 0 -21 -8 -30 -19 -16 -18 -14 -21 65 -82 45 -35 84 -69 86 -75 4 -12 -71 -52 -110 -58 -17 -3 -42 16 -104 76 -72 70 -84 78 -102 68 -12 -6 -21 -16 -20 -23 0 -7 24 -41 54 -77 29 -36 52 -66 50 -68 -15 -15 -372 -22 -510 -9 -164 16 -184 21 -288 75 -115 59 -240 199 -329 368 -63 118 -129 322 -149 459 -5 39 -11 81 -14 95 -26 172 -26 783 0 921 2 10 6 42 9 71 4 29 8 63 10 74 3 12 7 39 10 60 21 133 95 372 156 500 153 325 363 478 710 517 44 5 273 0 335 -8z m-1419 -1961 c3 -16 7 -36 9 -44 2 -8 7 -37 11 -65 3 -27 8 -53 10 -57 3 -4 7 -48 11 -98 l6 -92 -34 7 c-52 11 -111 47 -135 82 -41 61 -7 190 71 265 22 21 40 36 42 34 2 -2 6 -16 9 -32z m2638 22 c100 -42 102 -170 4 -262 -64 -62 -167 -99 -154 -56 38 122 57 205 57 247 0 27 2 58 5 68 6 21 42 22 88 3z m-1228 -1349 c8 -8 9 -145 1 -153 -11 -11 -121 -8 -144 4 -24 13 -96 17 -134 7 -24 -6 -28 -4 -33 22 -5 28 -9 85 -7 113 1 13 25 15 157 13 86 -1 158 -4 160 -6z"/>
<path d="M3144 4535 c-92 -48 -220 -133 -246 -162 -17 -19 -17 -20 6 -42 l25 -23 48 40 c45 38 140 87 227 118 64 23 68 30 46 75 -11 21 -21 38 -23 38 -1 -1 -39 -21 -83 -44z"/>
<path d="M1584 4466 c7 -62 52 -295 60 -303 3 -3 19 5 37 17 34 25 34 33 13 162 l-6 36 83 -18 c89 -19 99 -17 99 27 0 15 -10 28 -30 38 -45 24 -180 75 -223 84 l-38 9 5 -52z"/>
<path d="M2310 3374 c-246 -26 -475 -96 -515 -157 -19 -30 -26 -103 -13 -160 14 -65 25 -72 89 -48 66 24 183 59 224 66 187 33 254 38 500 39 361 1 532 -18 703 -77 75 -26 83 -25 96 20 9 28 10 125 2 150 -13 41 -236 123 -401 147 -22 4 -53 8 -70 11 -94 14 -148 17 -315 19 -102 2 -237 -3 -300 -10z m410 -68 c52 -4 109 -9 125 -11 17 -3 50 -7 75 -10 195 -23 361 -62 392 -93 20 -21 30 -90 11 -79 -10 6 -227 54 -273 61 -19 2 -55 7 -80 11 -95 14 -377 20 -475 11 -22 -2 -71 -7 -110 -10 -106 -10 -251 -33 -386 -62 -66 -14 -123 -23 -125 -21 -3 2 -6 23 -9 46 -3 34 0 45 22 65 42 40 224 82 393 93 52 3 96 6 97 7 5 4 253 -2 343 -8z"/>
<path d="M1973 2915 c-83 -18 -122 -38 -172 -87 -44 -44 -96 -140 -106 -198 -21 -112 5 -257 61 -343 103 -158 325 -212 511 -125 60 28 142 109 170 168 56 120 47 308 -20 420 -80 134 -266 203 -444 165z m215 -80 c98 -29 169 -102 199 -204 72 -250 -83 -455 -334 -439 -135 9 -225 76 -273 204 -67 181 11 380 172 435 65 23 167 24 236 4z"/>
<path d="M2016 2549 c-30 -35 -32 -58 -11 -99 33 -65 134 -51 150 20 20 90 -82 147 -139 79z"/>
<path d="M2923 2908 c-169 -25 -283 -130 -329 -302 -53 -199 47 -451 208 -525 81 -37 212 -54 283 -38 66 16 85 22 129 44 147 74 229 226 220 412 -7 172 -84 302 -219 368 -76 38 -197 55 -292 41z m218 -90 c143 -48 221 -180 215 -367 -5 -140 -71 -242 -196 -300 -74 -35 -209 -39 -286 -10 -228 87 -295 429 -118 606 40 40 65 56 115 72 81 26 191 25 270 -1z"/>
<path d="M2984 2535 c-35 -15 -59 -62 -50 -100 16 -64 95 -87 141 -40 65 64 -8 175 -91 140z"/>
<path d="M1737 2082 c-10 -10 -17 -25 -17 -33 0 -14 67 -63 126 -93 39 -19 140 -36 219 -36 53 0 171 23 183 35 6 6 5 55 -1 61 -3 3 -33 0 -67 -6 -83 -15 -195 -15 -250 0 -45 12 -117 47 -156 75 -19 14 -22 13 -37 -3z"/>
<path d="M3370 2038 c-119 -82 -247 -118 -362 -100 -40 6 -73 10 -74 9 -2 -1 -5 -14 -9 -30 -7 -24 -4 -29 31 -43 50 -21 153 -25 228 -8 110 25 267 116 266 154 -1 14 -23 50 -31 50 -2 0 -24 -15 -49 -32z"/>
<path d="M2675 1948 c-2 -7 -6 -92 -8 -188 -5 -186 -19 -257 -57 -298 -27 -29 -55 -28 -84 3 -46 49 -75 207 -80 424 -1 55 -1 56 -31 56 l-30 0 -1 -130 c-4 -290 56 -445 177 -459 84 -10 144 62 175 209 8 38 13 308 7 358 -5 33 -8 37 -34 37 -16 0 -31 -6 -34 -12z"/>
<path d="M3152 1430 c-12 -12 -22 -23 -22 -25 0 -3 17 -13 38 -24 20 -10 48 -31 62 -46 22 -24 25 -35 24 -96 l-2 -69 29 0 c33 0 47 21 43 67 -7 81 -50 158 -108 194 -38 23 -37 23 -64 -1z"/>
<path d="M1840 1383 c-42 -35 -60 -73 -67 -143 -5 -57 -4 -60 21 -71 34 -16 40 -8 42 55 1 60 13 86 50 115 18 14 24 26 19 40 -9 31 -32 32 -65 4z"/>
<path d="M3070 1239 c-32 -13 -232 -65 -285 -74 -136 -23 -256 -33 -380 -29 -77 2 -151 5 -165 8 -98 17 -151 31 -222 60 -37 15 -72 25 -77 22 -5 -3 -11 -19 -13 -36 -4 -27 0 -32 37 -50 41 -20 190 -61 270 -75 22 -3 126 -8 230 -10 253 -5 406 19 586 91 80 32 92 43 83 77 -7 29 -22 32 -64 16z"/>
</g>
</svg></svg>